<?xml version="1.0" encoding="UTF-8"?>
<svg version="1.1" xmlns="http://www.w3.org/2000/svg" width="540" height="540">
<path d="M0 0 C2.36688768 -0.00135696 4.73377516 -0.00313855 7.10066223 -0.00531006 C13.50213145 -0.00985202 19.90358447 -0.00810744 26.30505395 -0.00493097 C30.31599695 -0.00314532 34.3269379 -0.00349147 38.33788109 -0.00442123 C39.00637851 -0.00457447 39.67487594 -0.0047277 40.36363086 -0.00488558 C41.72234136 -0.00520535 43.08105187 -0.00552957 44.43976238 -0.00585817 C57.15547111 -0.00870367 69.87117262 -0.00544181 82.58688017 -0.0000578 C93.44529354 0.00439808 104.3036962 0.00364256 115.16210938 -0.00097656 C127.81912178 -0.0063584 140.47612783 -0.00841725 153.13314122 -0.0053643 C154.48987051 -0.00504581 155.8465998 -0.00473144 157.20332909 -0.00442123 C157.87056006 -0.00426696 158.53779103 -0.00411268 159.22524113 -0.00395373 C163.87636681 -0.0030985 168.52748828 -0.00458019 173.17861366 -0.00690079 C179.4750395 -0.00982286 185.77144546 -0.00772549 192.06786919 -0.00200653 C194.35891817 -0.00070128 196.64996888 -0.00103419 198.94101715 -0.0032692 C210.51773753 -0.01350752 222.07994936 0.10246703 233.64982605 0.52420044 C234.64315675 0.5561283 235.63648745 0.58805616 236.65991908 0.62095153 C250.83323236 1.20901549 260.97928047 7.90202819 270.5065918 18.12939453 C271.7722168 20.42236328 271.7722168 20.42236328 272.5065918 22.12939453 C274.5401866 23.39744019 274.5401866 23.39744019 276.5065918 24.12939453 C276.5065918 24.78939453 276.5065918 25.44939453 276.5065918 26.12939453 C277.1665918 26.12939453 277.8265918 26.12939453 278.5065918 26.12939453 C279.69347186 27.50874163 280.8776896 28.89223456 281.99487305 30.32861328 C284.02401992 32.7457624 286.26663756 34.90546601 288.5065918 37.12939453 C289.50434822 38.12248242 290.50200949 39.11566591 291.49958801 40.1089325 C292.61883166 41.2221516 293.73811167 42.33533415 294.85742188 43.44848633 C301.09584693 49.65433448 307.32925873 55.86519278 313.5597887 62.07896709 C317.32548677 65.83417914 321.09305261 69.58747889 324.86474609 73.33666992 C328.51878726 76.96905597 332.16798782 80.6062395 335.81381798 84.24686623 C337.20480812 85.63415248 338.59756132 87.01967323 339.99207497 88.40341759 C341.93359987 90.33052185 343.86887427 92.26369491 345.80273438 94.19848633 C346.38397568 94.77253708 346.96521698 95.34658783 347.56407166 95.93803406 C351.5065918 99.90128472 351.5065918 99.90128472 351.5065918 102.12939453 C352.3728418 102.50064453 352.3728418 102.50064453 353.2565918 102.87939453 C355.83599159 104.31239442 357.56780772 105.9136413 359.5065918 108.12939453 C359.5065918 108.78939453 359.5065918 109.44939453 359.5065918 110.12939453 C360.4965918 110.45939453 361.4865918 110.78939453 362.5065918 111.12939453 C362.5065918 111.78939453 362.5065918 112.44939453 362.5065918 113.12939453 C363.0840918 113.35626953 363.6615918 113.58314453 364.2565918 113.81689453 C367.10250561 115.47701092 368.505011 117.52127411 370.5065918 120.12939453 C373.85312844 123.55517068 377.30848258 126.85842431 380.7800293 130.15673828 C382.29811324 131.62305331 383.8127402 133.09284201 385.32592773 134.56420898 C386.35315379 135.55645261 387.38660345 136.5422982 388.42651367 137.52124023 C397.64566714 146.21631125 405.88894781 156.34849423 406.64805031 169.59853554 C406.65580168 170.4722801 406.66355305 171.34602467 406.67153931 172.24624634 C406.68839594 173.7674847 406.68839594 173.7674847 406.70559311 175.31945515 C406.71657721 176.98035317 406.71657721 176.98035317 406.7277832 178.67480469 C406.7392551 179.85663173 406.75072701 181.03845877 406.76254654 182.25609875 C406.79302847 185.53348894 406.81902863 188.81087647 406.84269476 192.08832192 C406.86359891 194.90104875 406.8876762 197.71374547 406.91158736 200.52644807 C406.98993588 209.79478857 407.05439337 219.06320503 407.1154995 228.33167315 C407.13153941 230.74650719 407.1480204 233.16133785 407.16462708 235.57616806 C407.50948855 285.93023665 407.58008785 336.28123948 407.29568946 386.63579011 C407.26406727 392.31172248 407.23955085 397.98765719 407.21783447 403.66363525 C407.19089669 410.59313224 407.15250536 417.52245818 407.09956372 424.45180708 C407.07265657 427.98498943 407.04989647 431.51804848 407.03937149 435.05132103 C407.02755711 438.8923955 406.99233391 442.73306077 406.95483398 446.57397461 C406.95470118 447.67790873 406.95456837 448.78184284 406.95443153 449.91922951 C406.76753681 463.86316063 403.05717741 476.31204338 393.6315918 486.81689453 C384.67264992 495.30189921 372.76815077 500.25620078 360.51946545 500.25244236 C359.82483976 500.2535962 359.13021408 500.25475005 358.41453913 500.25593886 C356.08168915 500.25859049 353.74890787 500.25409532 351.4160614 500.24964905 C349.72882741 500.25008505 348.04159349 500.25096048 346.35435992 500.25223821 C341.71380593 500.25447754 337.07327494 500.25046953 332.43272388 500.24546015 C327.43003837 500.24114781 322.4273542 500.24260264 317.42466736 500.24336243 C308.75577677 500.24388716 300.08689369 500.2407456 291.41800499 500.23512459 C278.88419588 500.2270028 266.35039042 500.22439367 253.81657896 500.2231366 C233.48204667 500.22094715 213.14751839 500.21428996 192.81298828 500.20483398 C173.05810567 500.1956571 153.30322415 500.18857762 133.54833984 500.18432617 C132.33095927 500.18406345 131.11357869 500.18380072 129.85930779 500.18353004 C123.7521599 500.18222502 117.64501199 500.18096131 111.53786409 500.17971814 C60.86077055 500.16934886 10.18368137 500.15173345 -40.4934082 500.12939453 C-40.4934082 499.46939453 -40.4934082 498.80939453 -40.4934082 498.12939453 C-41.03868164 497.99404297 -41.58395508 497.85869141 -42.14575195 497.71923828 C-52.40119577 494.79161586 -58.83888928 488.14799767 -65.4934082 480.12939453 C-66.1534082 479.46939453 -66.8134082 478.80939453 -67.4934082 478.12939453 C-67.9884082 476.64439453 -67.9884082 476.64439453 -68.4934082 475.12939453 C-68.96603379 473.99026567 -68.96603379 473.99026567 -69.44820738 472.82812411 C-72.95686894 463.73040629 -73.05634123 455.16610563 -73.00134277 445.5877533 C-73.00595833 443.82806606 -73.01231563 442.06838269 -73.02025175 440.3087073 C-73.03687803 435.49987965 -73.02872932 430.69137144 -73.01630688 425.88254297 C-73.00723125 420.6861544 -73.02123851 415.48981956 -73.03222656 410.29344177 C-73.04998919 400.12454223 -73.04618195 389.95576095 -73.034576 379.78685682 C-73.02553358 371.52111351 -73.02432118 363.25540329 -73.02867126 354.98965645 C-73.02959066 353.22340336 -73.02959066 353.22340336 -73.03052863 351.4214684 C-73.03180757 349.02922784 -73.03310442 346.63698729 -73.034419 344.24474675 C-73.04581806 321.82654869 -73.03272139 299.40841611 -73.01121753 276.99022878 C-72.99334485 257.76241466 -72.9964534 238.53469714 -73.01489258 219.30688477 C-73.03630715 196.96602796 -73.04472194 174.62522849 -73.03244352 152.28436285 C-73.03116935 149.90134753 -73.02991187 147.51833219 -73.02867126 145.13531685 C-73.02805416 143.96289356 -73.02743706 142.79047027 -73.02680126 141.58251901 C-73.0233503 133.32803369 -73.02917118 125.07358482 -73.03858948 116.81910515 C-73.04981723 106.75783049 -73.04675289 96.69668064 -73.0254665 86.63542026 C-73.014967 81.50390406 -73.01081564 76.37259581 -73.02406311 71.24108124 C-73.03601532 66.54014808 -73.02937783 61.83961491 -73.0081529 57.13871784 C-73.00369886 55.44172242 -73.00592608 53.74469295 -73.01565605 52.04771959 C-73.09064458 37.87808023 -70.48924968 26.48621357 -61.4934082 15.12939453 C-44.37273528 -2.02049456 -22.38083492 -0.02160154 0 0 Z M238.5065918 49.12939453 C235.11279616 53.3156941 235.07284774 57.39219946 235.10253906 62.55639648 C235.09567581 63.39283691 235.08881256 64.22927734 235.08174133 65.09106445 C235.06347381 67.85010871 235.06731167 70.60858413 235.07299805 73.36767578 C235.06843531 75.29192794 235.06312946 77.21617847 235.05711365 79.14042664 C235.04818194 83.17286804 235.0506053 87.20511142 235.06054688 91.23754883 C235.07202008 96.3923682 235.05185062 101.54650088 235.02262974 106.70123005 C235.00423481 110.67594207 235.00456705 114.65049067 235.01026726 118.6252346 C235.01042016 120.52494455 235.00440178 122.42466579 234.99197578 124.3243351 C234.97701016 126.9880569 234.98778422 129.65052499 235.00488281 132.31420898 C234.99521484 133.0911058 234.98554688 133.86800262 234.97558594 134.66844177 C235.06129547 141.08134049 237.05492272 146.1582051 241.1472168 151.11767578 C241.67831055 151.55466797 242.2094043 151.99166016 242.7565918 152.44189453 C243.27737305 152.89177734 243.7981543 153.34166016 244.3347168 153.80517578 C250.55433522 157.5973532 256.30645605 158.57807217 263.42944336 158.59350586 C264.70902924 158.61361221 264.70902924 158.61361221 266.01446533 158.63412476 C268.80874703 158.67421774 271.60271251 158.69339695 274.3972168 158.71142578 C276.34919335 158.73337353 278.30115898 158.75631274 280.25311279 158.78019714 C284.33139104 158.82693171 288.4095964 158.86363645 292.48803711 158.89282227 C297.71605096 158.93076851 302.94352641 158.99081829 308.17123795 159.05794239 C312.19628673 159.10771474 316.22138454 159.14736526 320.2465744 159.18378258 C322.1747293 159.20215795 324.10285964 159.22333222 326.03095245 159.24735451 C328.72110532 159.27905188 331.41102631 159.29749304 334.10131836 159.31225586 C334.89723389 159.32408401 335.69314941 159.33591217 336.51318359 159.34809875 C340.32778198 159.35500376 343.27661452 159.29466644 346.5065918 157.12939453 C346.1765918 156.13939453 345.8465918 155.14939453 345.5065918 154.12939453 C345.5065918 153.13939453 345.5065918 152.14939453 345.5065918 151.12939453 C343.56086653 148.77768109 343.56086653 148.77768109 341.0065918 146.37939453 C340.1712793 145.55955078 339.3359668 144.73970703 338.4753418 143.89501953 C336.40008296 141.92518876 334.25687097 140.06228489 332.07641602 138.21020508 C326.84063349 133.636359 321.9783705 128.69787683 317.09169388 123.75909615 C315.38786181 122.03766967 313.68033456 120.3199862 311.97177124 118.60325623 C307.12080621 113.7279945 302.27574846 108.84689149 297.43481445 103.96166992 C294.46018477 100.96033961 291.48076723 97.96383283 288.49830246 94.97028923 C287.36486317 93.83063218 286.23332616 92.68908001 285.1037178 91.54562569 C283.53366884 89.95647119 281.95765779 88.37347043 280.38012695 86.79174805 C279.4849234 85.88908707 278.58971985 84.98642609 277.66738892 84.05641174 C275.74035706 81.90753447 275.74035706 81.90753447 273.5065918 82.12939453 C273.10827148 81.25734375 273.10827148 81.25734375 272.7019043 80.36767578 C269.43021171 74.24127104 264.00578559 69.55205571 258.7565918 65.13330078 C256.99122189 63.56101821 255.34086208 61.97234106 253.6940918 60.28173828 C253.20779297 59.78262939 252.72149414 59.28352051 252.22045898 58.76928711 C250.81478537 57.31461653 249.41829214 55.85109174 248.0222168 54.38720703 C245.59878485 52.21213923 244.58480195 51.67016118 241.5065918 51.12939453 C241.1765918 50.46939453 240.8465918 49.80939453 240.5065918 49.12939453 C239.8465918 49.12939453 239.1865918 49.12939453 238.5065918 49.12939453 Z M-22.4934082 149.12939453 C-22.63790661 152.54583796 -22.63790661 152.54583796 -21.4934082 156.12939453 C-19.98115875 157.31988878 -18.46605337 158.5078593 -16.91461414 159.64681113 C-12.19847816 164.56662235 -13.21276465 174.88402488 -13.2596283 181.27554321 C-13.25862501 182.24624484 -13.25762173 183.21694648 -13.25658804 184.21706331 C-13.25564177 187.44264448 -13.26893454 190.66800323 -13.28222656 193.89355469 C-13.28442966 196.21699457 -13.28573366 198.54043546 -13.28620911 200.86387634 C-13.28913534 205.85381489 -13.29835817 210.84368751 -13.31251335 215.83360672 C-13.33293949 223.05673417 -13.34188999 230.27983406 -13.34743471 237.50298671 C-13.35667398 249.2358939 -13.37410902 260.96877305 -13.39746094 272.70166016 C-13.39885425 273.40268236 -13.40024756 274.10370456 -13.4016831 274.82596986 C-13.40307863 275.52786508 -13.40447416 276.22976031 -13.40591198 276.95292509 C-13.42568732 286.90790422 -13.44351728 296.86288429 -13.45898438 306.81787109 C-13.46007523 307.51863859 -13.46116608 308.21940608 -13.46228998 308.94140895 C-13.48032693 320.63512894 -13.49428214 332.32885178 -13.50615603 344.02257955 C-13.5145577 351.86644145 -13.52857669 359.71026749 -13.54712856 367.55411172 C-13.55777926 372.43284679 -13.56435799 377.31158153 -13.56992912 382.19032478 C-13.57339628 384.45100684 -13.5786067 386.71168701 -13.58569717 388.97236061 C-13.5951695 392.06065792 -13.59842758 395.14890319 -13.60020447 398.23721313 C-13.60448155 399.12924395 -13.60875863 400.02127477 -13.61316532 400.94033682 C-13.95117579 410.28708519 -13.95117579 410.28708519 -10.6184082 418.56689453 C-6.45748372 421.62639783 -2.2295447 421.30550138 2.7175293 421.33251953 C3.52267975 421.3382196 4.3278302 421.34391968 5.15737915 421.34979248 C6.86035857 421.35923389 8.56335619 421.36577305 10.26635742 421.36962891 C12.86499053 421.37933254 15.46283183 421.41036237 18.0612793 421.44189453 C19.71752461 421.4484252 21.37377557 421.45367542 23.0300293 421.45751953 C23.80414154 421.46986633 24.57825378 421.48221313 25.37582397 421.49493408 C29.94382932 421.47617276 32.95391289 421.07991084 36.5065918 418.12939453 C39.62959355 414.00225022 39.92876729 410.4399493 39.86735535 405.42887878 C39.87120026 404.27703416 39.87120026 404.27703416 39.87512285 403.10191995 C39.88005794 400.53298259 39.86357263 397.96463503 39.84716797 395.39575195 C39.84632164 393.55267348 39.84679696 391.709594 39.84849548 389.86651611 C39.84935662 384.86481702 39.83171162 379.86333353 39.81077361 374.86168456 C39.7920266 369.63398184 39.79025793 364.40627424 39.78669739 359.17854309 C39.77737113 349.27989905 39.75274943 339.38135434 39.72264892 329.48275405 C39.68912303 318.21321717 39.67262345 306.94367556 39.65756261 295.67410123 C39.62620043 272.49247725 39.57342858 249.31094146 39.5065918 226.12939453 C42.13416864 228.71631324 44.41260643 231.2217749 46.50268555 234.26220703 C47.05448486 235.05892822 47.60628418 235.85564941 48.17480469 236.67651367 C48.75866943 237.52721436 49.34253418 238.37791504 49.9440918 239.25439453 C54.58296223 245.9530959 59.27010983 252.60695489 64.0690918 259.19189453 C69.05746896 266.0511966 73.87386516 273.01313996 78.63623047 280.03076172 C82.29391067 285.40347655 86.05096451 290.69136892 89.8815918 295.94189453 C95.53029551 303.68517807 100.95159185 311.57057253 106.30688477 319.51928711 C109.48069859 324.21765734 112.733088 328.81572813 116.16455078 333.32910156 C118.07968987 335.89818209 119.82443059 338.56754462 121.5690918 341.25439453 C124.33866479 345.45393899 127.16633071 349.37160081 130.5065918 353.12939453 C131.1665918 352.79939453 131.8265918 352.46939453 132.5065918 352.12939453 C132.8365918 352.78939453 133.1665918 353.44939453 133.5065918 354.12939453 C140.87919098 352.900628 145.00757762 344.56322712 149.0690918 338.87939453 C150.89150334 336.30295491 152.69961312 333.71667301 154.5065918 331.12939453 C155.61709221 329.5446353 156.72777804 327.96000598 157.83862305 326.37548828 C160.22497601 322.96949668 162.60863971 319.56164047 164.9909668 316.15283203 C169.65254404 309.48652184 174.3470913 302.84365383 179.04321289 296.20166016 C180.5191602 294.11159663 181.99183502 292.01926364 183.46362305 289.92626953 C188.61639682 282.60332837 193.80960585 275.31364267 199.0690918 268.06689453 C203.70471373 261.67825996 208.23033322 255.22544886 212.67456055 248.70239258 C215.99352259 243.84028553 219.42486099 239.08081789 222.94799805 234.36376953 C224.35916437 232.34074413 225.47580982 230.36531962 226.5065918 228.12939453 C227.74459973 232.9375862 227.6507779 237.64688079 227.6394043 242.57470703 C227.64036102 243.49919647 227.64131775 244.42368591 227.64230347 245.37619019 C227.64298345 247.33803373 227.6411418 249.29987954 227.63696289 251.26171875 C227.63169744 254.19553009 227.63686916 257.12918224 227.64331055 260.06298828 C227.64713153 272.11667447 227.27581344 284.10045014 226.5065918 296.12939453 C229.80073834 295.04396247 233.07765894 293.94670583 236.3112793 292.69189453 C236.97772461 292.43666016 237.64416992 292.18142578 238.33081055 291.91845703 C239.6911955 291.39503273 241.05058576 290.86901538 242.40893555 290.34033203 C253.28984175 286.18923487 263.77308674 285.05118192 275.37768555 285.10595703 C276.0663269 285.10764893 276.75496826 285.10934082 277.46447754 285.11108398 C279.14518768 285.11545893 280.82589143 285.12218294 282.5065918 285.12939453 C282.57609968 273.61162815 282.62940717 262.09391167 282.66202831 250.57597828 C282.67768476 245.22774154 282.69892284 239.8796483 282.73291016 234.53149414 C282.76550407 229.37030819 282.78344497 224.20926028 282.79122353 219.04797935 C282.79676695 217.07879145 282.80759187 215.1096111 282.82378197 213.14048195 C282.84555654 210.38246962 282.8485587 207.6250278 282.84716797 204.86694336 C282.8579538 204.05270401 282.86873962 203.23846466 282.87985229 202.39955139 C282.85467345 197.78545913 282.37570175 194.79605422 279.5065918 191.12939453 C275.48785458 187.86403149 271.77078276 187.72743734 266.78393555 187.79345703 C265.25984286 187.78093078 263.73575431 187.76789306 262.21166992 187.75439453 C259.83789889 187.75049311 257.46454993 187.75426719 255.09082031 187.76904297 C240.67013987 187.82338658 229.39670297 185.33509945 218.5065918 175.12939453 C215.73171671 172.21507848 213.08042911 169.22220722 210.5065918 166.12939453 C205.90395332 167.62128425 204.08907415 171.41894309 201.6940918 175.31689453 C200.69612943 176.89808817 199.69739356 178.47879382 198.69799805 180.05908203 C198.17222168 180.89665039 197.64644531 181.73421875 197.10473633 182.59716797 C194.49000856 186.7401494 191.81105752 190.84059373 189.1315918 194.94189453 C188.53725342 195.85366455 187.94291504 196.76543457 187.33056641 197.70483398 C178.94360509 210.55358045 170.47986852 223.35211871 162.0246582 236.15600586 C155.50499189 246.03328018 149.01984026 255.93080575 142.60717773 265.87792969 C141.25483376 267.97120224 139.88896703 270.05583168 138.5065918 272.12939453 C133.37691608 265.04607636 128.32284615 257.9304375 123.5065918 250.62939453 C119.79043703 244.99657105 115.94281708 239.47830235 111.99511719 234.00561523 C109.08626151 229.96654124 106.28497617 225.8719043 103.56518555 221.70361328 C102.59863381 220.15737171 102.59863381 220.15737171 101.5065918 219.12939453 C100.58291709 217.65459392 99.66810986 216.1742395 98.7565918 214.69189453 C94.98028793 208.71916903 90.86378995 203.03173961 86.70019531 197.32470703 C82.59560223 191.68111089 78.61559026 185.96400066 74.6940918 180.19189453 C70.08207715 173.41040348 65.40885775 166.70560496 60.5065918 160.12939453 C59.91491211 159.29794922 59.32323242 158.46650391 58.71362305 157.60986328 C58.12967773 156.81193359 57.54573242 156.01400391 56.9440918 155.19189453 C56.1996582 154.15742188 56.1996582 154.15742188 55.44018555 153.10205078 C51.0574278 148.63075247 47.16581027 146.89713496 40.98608398 146.67529297 C38.84177395 146.67592142 36.69739373 146.69823301 34.5534668 146.73876953 C32.84770477 146.74725922 32.84770477 146.74725922 31.10748291 146.75592041 C27.49008245 146.77822282 23.87368998 146.8283817 20.2565918 146.87939453 C17.80868957 146.89946992 15.36077165 146.91771886 12.9128418 146.93408203 C7.53973098 146.97334363 2.16713565 147.03013263 -3.20562744 147.10247803 C-5.9203897 147.13441811 -8.62680447 147.1261008 -11.34106445 147.05908203 C-12.40196289 147.04103516 -13.46286133 147.02298828 -14.5559082 147.00439453 C-15.61938477 146.98119141 -16.68286133 146.95798828 -17.77856445 146.93408203 C-20.6428232 146.84244679 -20.6428232 146.84244679 -22.4934082 149.12939453 Z M223.5065918 327.12939453 C222.87237305 327.67080078 222.2381543 328.21220703 221.5847168 328.77001953 C212.52595103 337.02712461 206.28955416 349.74575834 205.36401367 362.02026367 C204.59346926 379.03317656 208.42009152 392.65778868 219.98706055 405.59814453 C222.34159933 407.97084171 224.91537351 410.02026337 227.5065918 412.12939453 C230.70502876 418.52626846 228.10418174 429.22509644 227.5065918 436.12939453 C231.7200999 434.8882061 235.34215198 433.20860638 239.16430664 431.10742188 C250.47895181 424.95880907 258.11540041 425.56434859 270.5065918 428.12939453 C270.49088135 427.51531738 270.4751709 426.90124023 270.45898438 426.26855469 C270.39582986 423.43059865 270.35735003 420.5927912 270.3190918 417.75439453 C270.29395508 416.78888672 270.26881836 415.82337891 270.24291992 414.82861328 C270.10603837 401.23171204 275.23718004 388.94297425 284.5378418 378.96923828 C297.55478129 366.80459839 313.70874611 361.81665699 331.1940918 361.44189453 C332.28915039 361.40773438 333.38420898 361.37357422 334.51245117 361.33837891 C337.17706203 361.25692792 339.84138642 361.18745232 342.5065918 361.12939453 C340.21342776 348.06818967 334.90824495 337.68147414 325.5065918 328.12939453 C324.8465918 328.12939453 324.1865918 328.12939453 323.5065918 328.12939453 C323.5065918 327.46939453 323.5065918 326.80939453 323.5065918 326.12939453 C321.57936868 324.59184506 319.67014675 323.19315203 317.6315918 321.81689453 C316.73476685 321.21131714 316.73476685 321.21131714 315.81982422 320.59350586 C286.95605789 301.39089583 249.46690877 303.78378574 223.5065918 327.12939453 Z M320.5065918 371.12939453 C319.3722168 371.23251953 318.2378418 371.33564453 317.0690918 371.44189453 C305.18953058 372.86066566 294.56085452 379.82688442 287.04174805 388.94580078 C279.48664942 399.69211155 278.48167991 410.32658456 279.5065918 423.12939453 C281.68675322 434.2666047 289.27284233 443.74971308 298.5065918 450.12939453 C308.81438942 455.79933644 318.24057968 458.50156768 329.9440918 458.31689453 C330.77739014 458.31407471 331.61068848 458.31125488 332.46923828 458.30834961 C336.75258 458.26942156 340.83496667 458.01586122 345.0690918 457.31689453 C349.92936352 456.68073331 353.07436741 458.54653491 357.2331543 460.91455078 C359.9514809 462.36712737 362.44435649 462.88763911 365.5065918 463.12939453 C365.2900293 462.25927734 365.2900293 462.25927734 365.0690918 461.37158203 C362.79966985 451.82109802 362.79966985 451.82109802 363.5065918 448.12939453 C365.61488437 445.25121983 368.06438042 442.72424412 370.5065918 440.12939453 C376.77839839 432.80092487 380.85586267 422.86342178 380.5065918 413.12939453 C378.91540518 399.0432056 373.26561778 389.95109836 362.64331055 380.80908203 C360.6187629 379.10165451 360.6187629 379.10165451 358.5065918 378.12939453 C357.43151367 377.57445312 357.43151367 377.57445312 356.3347168 377.00830078 C347.37579336 372.36730252 347.37579336 372.36730252 337.5065918 371.12939453 C337.0115918 370.63439453 337.0115918 370.63439453 336.5065918 370.12939453 C333.99523075 370.02964421 331.51755765 369.9905727 329.0065918 370.00439453 C328.30405273 370.00052734 327.60151367 369.99666016 326.87768555 369.99267578 C323.40230371 369.68548522 323.40230371 369.68548522 320.5065918 371.12939453 Z " fill="#0D9E58" transform="translate(110.493408203125,23.87060546875)"/>
<path d="M0 0 C3.64892241 3.18111185 4.73441154 6.31221021 5.09765625 11.0078125 C4.93676897 14.28991295 3.85965313 16.33449718 2 19 C-1.38490808 21.90134978 -4.53644821 22.59531586 -9.00390625 22.41796875 C-12.71909557 21.64003282 -14.42379365 19.76022109 -17 17 C-18.88412896 13.88709129 -19.00290727 12.16280692 -18.9375 8.5 C-17.58836176 3.46321722 -15.03125616 1.26267275 -10.6875 -1.4375 C-6.75642819 -2.26028247 -3.66098853 -1.60072511 0 0 Z " fill="#12A059" transform="translate(367,364)"/>
<path d="M0 0 C2.64010395 3.49425523 3.20046841 5.43533193 3.125 9.8125 C1.57331855 14.00203991 -0.78667155 17.82674046 -4.875 19.8125 C-9.04002879 20.35241114 -11.32751524 20.07571383 -15.125 18.25 C-18.48619363 15.27076019 -19.69999994 13.14531274 -20.875 8.8125 C-20.11133404 3.27592181 -18.19698465 0.31124948 -13.875 -3.1875 C-9.02484568 -5.61257716 -3.98041711 -3.02857823 0 0 Z " fill="#10A059" transform="translate(418.875,366.1875)"/>
<path d="M0 0 C0.99 0.495 0.99 0.495 2 1 C4.3493371 12.02656755 3.12534508 24.42404649 3.09765625 35.62402344 C3.09573468 37.90835029 3.09427201 40.19267758 3.0932312 42.477005 C3.09008198 47.37630759 3.08383137 52.27559272 3.07516479 57.17488861 C3.06159647 64.92398445 3.05573885 72.67307459 3.05102539 80.42218018 C3.04370577 91.28617761 3.03360195 102.15016813 3.02050781 113.01416016 C3.01968 113.7020889 3.01885219 114.39001764 3.01799929 115.0987927 C3.01209806 119.98252859 3.00606285 124.86626431 3 129.75 C2.99306824 135.33577463 2.98620194 140.92154932 2.97949219 146.50732422 C2.97866406 147.19561828 2.97783593 147.88391234 2.97698271 148.5930638 C2.96328615 160.07892652 2.95357499 171.56478873 2.94658184 183.05065751 C2.94160321 190.75234596 2.93174965 198.45400806 2.91815186 206.1556859 C2.91068947 210.94483106 2.90737611 215.7339726 2.9051857 220.52312279 C2.90331484 222.74187881 2.89971619 224.96063415 2.89425278 227.17938423 C2.88702402 230.21065041 2.88599955 233.24185896 2.88647461 236.27313232 C2.88287965 237.14823511 2.87928469 238.02333789 2.87558079 238.92495894 C2.53751812 249.23125882 2.53751812 249.23125882 7 258 C3.34683329 256.75023244 2.21934164 256.32901247 0 253 C-0.24839699 251.00516111 -0.24839699 251.00516111 -0.24609566 248.67966175 C-0.25007775 247.79238952 -0.25405985 246.9051173 -0.25816262 245.99095803 C-0.25233693 245.01528664 -0.24651125 244.03961525 -0.24050903 243.03437805 C-0.24221788 241.99867603 -0.24392673 240.96297401 -0.24568737 239.89588708 C-0.24899418 236.40879354 -0.23795889 232.9218904 -0.22705078 229.43481445 C-0.22648693 226.94179285 -0.22680273 224.44877092 -0.22793579 221.95574951 C-0.22839193 216.57988833 -0.22270156 211.20408696 -0.21146011 205.82824135 C-0.19521739 198.05564682 -0.18999837 190.28307578 -0.18748413 182.51046612 C-0.1831051 169.90043742 -0.16979035 157.29043458 -0.15087891 144.68041992 C-0.1325255 132.4297702 -0.11836636 120.17912749 -0.10986328 107.9284668 C-0.10933783 107.17354509 -0.10881239 106.41862338 -0.10827102 105.64082525 C-0.10566097 101.85366717 -0.10313355 98.06650904 -0.10064721 94.27935088 C-0.07990822 62.85288179 -0.04452853 31.42644482 0 0 Z " fill="#2EAF73" transform="translate(95,186)"/>
<path d="M0 0 C2.93200693 2.08326808 3.82319306 3.45779204 4.9375 6.875 C5.01617576 10.80878804 4.17497577 12.73753635 2 16 C-0.32327413 18.12413635 -1.77557905 19.03658628 -4.9609375 18.94140625 C-8.94784686 18.22257687 -10.71362069 17.30034903 -13.5625 14.3125 C-15.32908146 10.24168185 -15.25423082 8.23302903 -14 4 C-9.90274051 -1.18986202 -6.27286751 -1.43065399 0 0 Z " fill="#0C9E55" transform="translate(462,418)"/>
<path d="M0 0 C3.45494064 2.97508777 4.88022104 4.73034301 5.3125 9.3125 C4.94115803 13.69433524 4.34168746 15.15956566 1 18 C-1.75259461 19.05418517 -4.07259711 19.37084182 -7 19 C-11.13587419 16.5936732 -12.66770404 15.09462198 -14.0625 10.5 C-13.97577711 5.6435183 -12.35758626 3.35758626 -9 0 C-5.73215336 -1.23952804 -3.30944618 -1.07557001 0 0 Z " fill="#17A25B" transform="translate(425,418)"/>
<path d="M0 0 C1.19844543 -0.0030011 2.39689087 -0.0060022 3.63165283 -0.00909424 C4.92851013 0.00325256 6.22536743 0.01559937 7.56152344 0.02832031 C8.90809925 0.03138002 10.25467824 0.03325453 11.60125732 0.03399658 C14.42586358 0.0386002 17.25018485 0.05302097 20.07470703 0.07519531 C23.68023929 0.10336908 27.28554626 0.11439641 30.89117813 0.11887741 C34.34382175 0.12405936 37.79640985 0.13859262 41.24902344 0.15332031 C43.182164 0.15969513 43.182164 0.15969513 45.15435791 0.16619873 C57.3631126 0.26305332 57.3631126 0.26305332 62.17089844 1.35644531 C62.66589844 2.34644531 62.66589844 2.34644531 63.17089844 3.35644531 C62.51579285 3.36675278 61.86068726 3.37706024 61.18572998 3.38768005 C54.37258005 3.49578955 47.55956117 3.61038414 40.74658203 3.72875977 C38.20331563 3.7720943 35.66002042 3.81377044 33.11669922 3.85375977 C29.46280225 3.9114979 25.80905013 3.97518256 22.15527344 4.04003906 C21.01660828 4.05675156 19.87794312 4.07346405 18.70477295 4.09068298 C17.11357635 4.12060081 17.11357635 4.12060081 15.49023438 4.15112305 C14.55757751 4.16666733 13.62492065 4.18221161 12.66400146 4.19822693 C10.18498454 4.27887192 10.18498454 4.27887192 7.90093994 4.93177795 C7.33002625 5.07191818 6.75911255 5.21205841 6.17089844 5.35644531 C5.84089844 5.02644531 5.51089844 4.69644531 5.17089844 4.35644531 C2.82102582 4.12116758 0.46533805 3.94258114 -1.89160156 3.79394531 C-3.18195313 3.71015625 -4.47230469 3.62636719 -5.80175781 3.54003906 C-7.30029297 3.44916016 -7.30029297 3.44916016 -8.82910156 3.35644531 C-6.22394573 -0.03332347 -4.15093999 -0.01433188 0 0 Z " fill="#079245" transform="translate(96.8291015625,167.6435546875)"/>
<path d="M0 0 C2.4196445 2.4196445 2.25208345 2.9921666 2.25878906 6.30004883 C2.26509338 7.19311234 2.27139771 8.08617584 2.27789307 9.00630188 C2.2738446 9.98004257 2.26979614 10.95378326 2.265625 11.95703125 C2.26753845 12.96980637 2.2694519 13.98258148 2.27142334 15.02604675 C2.27278832 17.18574266 2.26907021 19.34544668 2.26074219 21.50512695 C2.25025679 24.73343698 2.26051539 27.96116303 2.2734375 31.18945312 C2.28116498 44.57229647 1.53686351 57.7064807 0 71 C-0.66 71 -1.32 71 -2 71 C-1.8946418 70.14613708 -1.8946418 70.14613708 -1.78715515 69.27502441 C-0.98006723 62.11962529 -0.83889298 55.0398158 -0.83203125 47.84375 C-0.82870285 46.61966431 -0.82537445 45.39557861 -0.82194519 44.13439941 C-0.81691068 41.56616591 -0.81453578 38.99792594 -0.81469727 36.4296875 C-0.8124912 32.48426837 -0.79424573 28.53912049 -0.77539062 24.59375 C-0.77245997 22.09375095 -0.77047298 19.59375059 -0.76953125 17.09375 C-0.76234573 15.91051147 -0.75516022 14.72727295 -0.74775696 13.50817871 C-0.75083359 12.41944458 -0.75391022 11.33071045 -0.75708008 10.20898438 C-0.75565506 9.24875366 -0.75423004 8.28852295 -0.75276184 7.29919434 C-0.777876 4.8038223 -0.777876 4.8038223 -3 3 C-2.34 3 -1.68 3 -1 3 C-0.67 2.01 -0.34 1.02 0 0 Z " fill="#3AB67C" transform="translate(337,251)"/>
<path d="M0 0 C0 3.33333333 0 6.66666667 0 10 C1.32 10.66 2.64 11.32 4 12 C4 12.66 4 13.32 4 14 C6.97 13.34 9.94 12.68 13 12 C13 11.34 13 10.68 13 10 C13.66 10 14.32 10 15 10 C14.67 7.03 14.34 4.06 14 1 C14.66 1.33 15.32 1.66 16 2 C17.10147878 5.64335288 17.15074252 7.5728962 15.875 11.1875 C13.74959556 14.37560666 12.61747024 15.71378836 9 17 C4.33188018 16.86051435 1.66590755 15.69839084 -1.5625 12.3125 C-3.30099962 8.30639219 -3.12508169 6.17887483 -2 2 C-1.34 1.34 -0.68 0.68 0 0 Z " fill="#29A662" transform="translate(450,420)"/>
<path d="M0 0 C22.11 0 44.22 0 67 0 C67 0.33 67 0.66 67 1 C66.07371796 1.0154612 66.07371796 1.0154612 65.12872314 1.03123474 C58.70484982 1.13936746 52.28111484 1.25396011 45.85742188 1.37231445 C43.45966485 1.41564155 41.0618774 1.45731822 38.6640625 1.49731445 C35.21865674 1.55507063 31.77340375 1.61875006 28.328125 1.68359375 C26.71855927 1.70866249 26.71855927 1.70866249 25.07647705 1.73423767 C24.07574158 1.75418289 23.0750061 1.77412811 22.04394531 1.79467773 C21.16458313 1.81022202 20.28522095 1.8257663 19.37921143 1.84178162 C16.99839699 1.92737364 16.99839699 1.92737364 14.74725342 2.57533264 C14.17065979 2.71547287 13.59406616 2.8556131 13 3 C12.67 2.67 12.34 2.34 12 2 C9.98405418 1.76572222 7.961526 1.58663876 5.9375 1.4375 C4.83277344 1.35371094 3.72804688 1.26992187 2.58984375 1.18359375 C1.73519531 1.12300781 0.88054687 1.06242188 0 1 C0 0.67 0 0.34 0 0 Z " fill="#55C78B" transform="translate(90,170)"/>
<path d="M0 0 C0 0.66 0 1.32 0 2 C-3.96 2 -7.92 2 -12 2 C-12.66 3.65 -13.32 5.3 -14 7 C-14.66 7 -15.32 7 -16 7 C-16 9.31 -16 11.62 -16 14 C-15.34 14 -14.68 14 -14 14 C-13.67 15.65 -13.34 17.3 -13 19 C-15.2668041 17.02568675 -16.79970992 15.49404885 -17.9375 12.6875 C-18.04893522 7.8957855 -16.03982187 4.27462035 -13.0625 0.625 C-8.44589593 -3.01232442 -5.42540143 -1.77368893 0 0 Z " fill="#1CA057" transform="translate(416,364)"/>
<path d="M0 0 C0.89783203 -0.01224609 1.79566406 -0.02449219 2.72070312 -0.03710938 C3.58759766 -0.03904297 4.45449219 -0.04097656 5.34765625 -0.04296875 C6.13277588 -0.04707764 6.91789551 -0.05118652 7.72680664 -0.05541992 C9.9375 0.1875 9.9375 0.1875 13.9375 2.1875 C7.0075 2.1875 0.0775 2.1875 -7.0625 2.1875 C-7.3925 2.8475 -7.7225 3.5075 -8.0625 4.1875 C-11.0325 3.8575 -14.0025 3.5275 -17.0625 3.1875 C-12.74949376 -1.12550624 -5.73860723 0.00413742 0 0 Z " fill="#1C9E53" transform="translate(439.0625,391.8125)"/>
<path d="M0 0 C0.33 0.99 0.66 1.98 1 3 C-0.328125 5.3046875 -0.328125 5.3046875 -2.25 7.875 C-4.6890485 11.17073909 -6.90498666 14.47629562 -9 18 C-10.5625 19.8125 -10.5625 19.8125 -12 21 C-12.66 21 -13.32 21 -14 21 C-12.35460665 17.46325243 -10.29063059 14.30277369 -8.125 11.0625 C-7.44695312 10.04285156 -6.76890625 9.02320313 -6.0703125 7.97265625 C-4.14968799 5.21492936 -2.13230273 2.59605467 0 0 Z " fill="#1DA15A" transform="translate(296,310)"/>
<path d="M0 0 C2.53427675 4.23397241 2.37167075 8.30118063 2.55859375 13.125 C3.04095414 16.26674558 3.8977924 17.66795103 6 20 C2.34683329 18.75023244 1.21934164 18.32901247 -1 15 C-0.98283648 12.38256342 -0.8673225 9.90777395 -0.625 7.3125 C-0.56828125 6.61060547 -0.5115625 5.90871094 -0.453125 5.18554688 C-0.31195359 3.45619715 -0.15728041 1.72795912 0 0 Z " fill="#2EA967" transform="translate(96,424)"/>
<path d="M0 0 C0.66 0.99 1.32 1.98 2 3 C1.01 3.33 0.02 3.66 -1 4 C-0.34 9.61 0.32 15.22 1 21 C-0.32 20.34 -1.64 19.68 -3 19 C-2.34 18.67 -1.68 18.34 -1 18 C-1.33 16.80375 -1.66 15.6075 -2 14.375 C-2.87397398 10.81622827 -3.41831044 7.68113185 -3 4 C-1.5 1.625 -1.5 1.625 0 0 Z " fill="#3CAE73" transform="translate(476,468)"/>
<path d="M0 0 C0.33 0.99 0.66 1.98 1 3 C0.67 3.66 0.34 4.32 0 5 C-0.66 5 -1.32 5 -2 5 C-2.2475 5.78375 -2.495 6.5675 -2.75 7.375 C-4.15389099 10.32317108 -5.00675737 10.9024777 -8 12 C-6.49087042 7.01987239 -3.44338151 3.75740058 0 0 Z " fill="#26A25F" transform="translate(395,402)"/>
<path d="M0 0 C7.48291572 6.15034169 7.48291572 6.15034169 10 10 C9.34 10.66 8.68 11.32 8 12 C7.7525 11.195625 7.505 10.39125 7.25 9.5625 C6.8375 8.716875 6.425 7.87125 6 7 C4.01954441 6.33820153 4.01954441 6.33820153 2 6 C0 3 0 3 0 0 Z " fill="#1D9E59" transform="translate(495,159)"/>
<path d="M0 0 C3.43925256 2.29283504 3.61011687 3.26468909 5 7 C5.97236487 8.6829392 6.96564444 10.35443434 8 12 C4.62118566 10.60186993 2.84982122 9.17112209 1 6 C0.3125 2.75 0.3125 2.75 0 0 Z " fill="#25A461" transform="translate(348,373)"/>
<path d="M0 0 C1.9375 0.3125 1.9375 0.3125 4 1 C4.33 1.99 4.66 2.98 5 4 C5.66 4 6.32 4 7 4 C7.66 5.32 8.32 6.64 9 8 C4.75153925 7.52794881 2.73180712 5.11122478 0 2 C0 1.34 0 0.68 0 0 Z " fill="#219D5D" transform="translate(382,46)"/>
<path d="M0 0 C3.3 0 6.6 0 10 0 C9.67 0.99 9.34 1.98 9 3 C2.25 3.125 2.25 3.125 0 2 C0 1.34 0 0.68 0 0 Z " fill="#21A35C" transform="translate(405,383)"/>
<path d="M0 0 C6.27 0 12.54 0 19 0 C18.01 1.485 18.01 1.485 17 3 C11.39 2.34 5.78 1.68 0 1 C0 0.67 0 0.34 0 0 Z " fill="#41C475" transform="translate(90,170)"/>
<path d="M0 0 C0.33 0.66 0.66 1.32 1 2 C1.66 2 2.32 2 3 2 C3.99 4.64 4.98 7.28 6 10 C4.68 10.33 3.36 10.66 2 11 C1.24758891 7.34543185 0.59950296 3.68266103 0 0 Z " fill="#28A65B" transform="translate(40,491)"/>
<path d="M0 0 C4 1 4 1 6.3125 3.8125 C8 7 8 7 7 11 C4.69 7.37 2.38 3.74 0 0 Z " fill="#23A35A" transform="translate(225,262)"/>
<path d="M0 0 C1.58409994 0.11487748 3.16728963 0.24234508 4.75 0.375 C6.07257813 0.47941406 6.07257813 0.47941406 7.421875 0.5859375 C9.99066382 0.99850055 11.75841015 1.71160957 14 3 C9.53296454 4.48901182 5.93404518 2.93473185 1.77734375 0.92578125 C1.19082031 0.62027344 0.60429687 0.31476563 0 0 Z " fill="#069545" transform="translate(369,451)"/>
<path d="M0 0 C0.66 0.66 1.32 1.32 2 2 C0.02 4.97 -1.96 7.94 -4 11 C-5 7 -5 7 -4.00390625 5.078125 C-3.52824219 4.47484375 -3.05257813 3.8715625 -2.5625 3.25 C-2.08941406 2.63640625 -1.61632812 2.0228125 -1.12890625 1.390625 C-0.75636719 0.93171875 -0.38382812 0.4728125 0 0 Z " fill="#1AA35D" transform="translate(327,355)"/>
<path d="M0 0 C-0.33 0.66 -0.66 1.32 -1 2 C-3.28515625 2.6328125 -3.28515625 2.6328125 -6.0625 3.125 C-6.98160156 3.29257812 -7.90070313 3.46015625 -8.84765625 3.6328125 C-9.91306641 3.81457031 -9.91306641 3.81457031 -11 4 C-10.67 3.01 -10.34 2.02 -10 1 C-6.52674819 -0.1577506 -3.63932552 -0.06866652 0 0 Z " fill="#1A9B55" transform="translate(77,26)"/>
<path d="M0 0 C5 7.5 5 7.5 5 11 C2 10 2 10 0.8125 8.3125 C-0.19313465 5.45030907 -0.13689641 3.01172092 0 0 Z " fill="#23A55D" transform="translate(318,409)"/>
<path d="M0 0 C0.99 0.66 1.98 1.32 3 2 C1.25 4.0625 1.25 4.0625 -1 6 C-3.25 5.75 -3.25 5.75 -5 5 C-3.35 3.35 -1.7 1.7 0 0 Z " fill="#1C9D59" transform="translate(52,37)"/>
<path d="M0 0 C2.32240046 2.85021875 3.93906527 5.46355091 5 9 C4.625 11.3125 4.625 11.3125 4 13 C3.67 11.02 3.34 9.04 3 7 C2.34 7 1.68 7 1 7 C0.67 4.69 0.34 2.38 0 0 Z " fill="#33AC6A" transform="translate(511,177)"/>
<path d="M0 0 C0.88336837 2.4667645 1.1312406 3.63859372 0.22265625 6.140625 C-0.16019531 6.83671875 -0.54304687 7.5328125 -0.9375 8.25 C-1.31777344 8.95640625 -1.69804688 9.6628125 -2.08984375 10.390625 C-2.39019531 10.92171875 -2.69054687 11.4528125 -3 12 C-3.66 11.01 -4.32 10.02 -5 9 C-4.34 7.68 -3.68 6.36 -3 5 C-2.34 5 -1.68 5 -1 5 C-0.67 3.35 -0.34 1.7 0 0 Z " fill="#30A869" transform="translate(514,489)"/>
<path d="M0 0 C-2 2 -2 2 -4.1640625 2.1953125 C-5.38222656 2.16050781 -5.38222656 2.16050781 -6.625 2.125 C-7.44226563 2.10695313 -8.25953125 2.08890625 -9.1015625 2.0703125 C-9.72804688 2.04710937 -10.35453125 2.02390625 -11 2 C-8.74490247 -2.51019507 -4.15738698 -0.70597137 0 0 Z " fill="#2DB17B" transform="translate(462,418)"/>
<path d="M0 0 C0.33 0 0.66 0 1 0 C1 2.64 1 5.28 1 8 C1.66 8 2.32 8 3 8 C3.33 9.65 3.66 11.3 4 13 C0.75949133 10.17762148 -0.67495711 8.33390526 -1 4 C-0.5625 1.6875 -0.5625 1.6875 0 0 Z " fill="#33AB6B" transform="translate(399,370)"/>
<path d="M0 0 C1 2 1 2 0.44140625 4.1640625 C0.15136719 4.97617187 -0.13867188 5.78828125 -0.4375 6.625 C-0.72496094 7.44226563 -1.01242187 8.25953125 -1.30859375 9.1015625 C-1.53675781 9.72804688 -1.76492188 10.35453125 -2 11 C-3.75258419 7.98529362 -4.08952186 7.38046792 -3.25 3.8125 C-2 1 -2 1 0 0 Z " fill="#2DA968" transform="translate(320,368)"/>
<path d="M0 0 C1.98 0.99 1.98 0.99 4 2 C3.67 3.32 3.34 4.64 3 6 C2.67 5.67 2.34 5.34 2 5 C1.67 6.65 1.34 8.3 1 10 C0.67 10 0.34 10 0 10 C0 6.7 0 3.4 0 0 Z " fill="#0E984A" transform="translate(151,252)"/>
<path d="M0 0 C1.875 0.5625 1.875 0.5625 4 2 C5.25 5.625 5.25 5.625 6 9 C4.68 8.34 3.36 7.68 2 7 C2 6.34 2 5.68 2 5 C1.36096883 3.32254318 0.69658363 1.65438613 0 0 Z " fill="#2CB25E" transform="translate(173,186)"/>
<path d="M0 0 C1.32 0.33 2.64 0.66 4 1 C1.36 2.98 -1.28 4.96 -4 7 C-2.73033708 1.92134831 -2.73033708 1.92134831 0 0 Z " fill="#21A45D" transform="translate(403,404)"/>
<path d="M0 0 C1.9375 0.5 1.9375 0.5 4 2 C4.68790422 4.69658452 4.81946464 7.2017019 5 10 C2.57244264 7.57244264 1.42454809 5.10810492 0 2 C0 1.34 0 0.68 0 0 Z " fill="#30A868" transform="translate(446,365)"/>
<path d="M0 0 C-3.28463659 2.18975773 -6.20696275 2.99806563 -10 4 C-9.67 3.01 -9.34 2.02 -9 1 C-6.04335481 -0.4783226 -3.25770263 -0.06032783 0 0 Z " fill="#29A862" transform="translate(361,335)"/>
<path d="M0 0 C-3.63423209 2.32590854 -6.77088331 2.16265833 -11 2 C-6.80312837 -0.79791442 -4.79748656 -1.16695619 0 0 Z " fill="#1DA159" transform="translate(368,333)"/>
<path d="M0 0 C3.99996286 1.33332095 4.83782337 3.4957827 7 7 C3.76509224 6.44225728 2.02144994 5.62788492 0 3 C0 2.01 0 1.02 0 0 Z " fill="#20A456" transform="translate(393,56)"/>
<path d="M0 0 C-0.99 0 -1.98 0 -3 0 C-3 0.66 -3 1.32 -3 2 C-5.60582371 2.93065133 -6.64198224 3.14917407 -9.25 2.0625 C-9.8275 1.711875 -10.405 1.36125 -11 1 C-3.57142857 -1.42857143 -3.57142857 -1.42857143 0 0 Z " fill="#2AA765" transform="translate(429,387)"/>
<path d="M0 0 C0.99 0 1.98 0 3 0 C3 0.66 3 1.32 3 2 C3.66 2.33 4.32 2.66 5 3 C1.78548731 4.60725635 -1.43612536 4.05748185 -5 4 C-5 3.67 -5 3.34 -5 3 C-3.35 2.67 -1.7 2.34 0 2 C0 1.34 0 0.68 0 0 Z " fill="#33B16D" transform="translate(361,382)"/>
<path d="M0 0 C0.33 0 0.66 0 1 0 C1 1.65 1 3.3 1 5 C-0.65 5.66 -2.3 6.32 -4 7 C-2.92598892 4.08482708 -2.22189824 2.22189824 0 0 Z " fill="#24A45E" transform="translate(257,365)"/>
<path d="M0 0 C0.33 0.66 0.66 1.32 1 2 C0.125 3.9375 0.125 3.9375 -1 6 C-1.33 6.99 -1.66 7.98 -2 9 C-2.99 9 -3.98 9 -5 9 C-3.7508258 5.54074837 -2.32472205 2.85306797 0 0 Z " fill="#27A762" transform="translate(319,277)"/>
<path d="M0 0 C3.81538462 2.46153846 3.81538462 2.46153846 4.75 5.1875 C4.8325 5.785625 4.915 6.38375 5 7 C2.5 5.75 2.5 5.75 0 4 C0 2.68 0 1.36 0 0 Z " fill="#2CA360" transform="translate(224,354)"/>
<path d="M0 0 C1.32 0.33 2.64 0.66 4 1 C4.66 3.31 5.32 5.62 6 8 C3.33264727 5.51047079 1.44253657 3.36591866 0 0 Z " fill="#2CA667" transform="translate(240,284)"/>
<path d="M0 0 C0.33 0 0.66 0 1 0 C1.33 2.31 1.66 4.62 2 7 C1.01 7 0.02 7 -1 7 C-1.625 4.625 -1.625 4.625 -2 2 C-1.34 1.34 -0.68 0.68 0 0 Z " fill="#2DA564" transform="translate(87,173)"/>
<path d="M0 0 C0.99 0.495 0.99 0.495 2 1 C1.67 1.66 1.34 2.32 1 3 C0.67 2.01 0.34 1.02 0 0 Z " fill="#22B04E" transform="translate(177,195)"/>
<path d="M0 0 C4 1 4 1 4 1 Z " fill="#2AD42A" transform="translate(95,172)"/>
<path d="M0 0 C3 1 3 1 3 1 Z " fill="#00D42A" transform="translate(423,397)"/>
<path d="M0 0 C3 1 3 1 3 1 Z " fill="#15E92A" transform="translate(439,395)"/>
<path d="M0 0 C3 1 3 1 3 1 Z " fill="#00AA55" transform="translate(382,333)"/>
<path d="" fill="#00FF00" transform="translate(0,0)"/>
<path d="" fill="#00D42A" transform="translate(0,0)"/>
<path d="M0 0 C0.66 0.66 1.32 1.32 2 2 C1.34 2 0.68 2 0 2 C0 1.34 0 0.68 0 0 Z " fill="#15BF55" transform="translate(207,238)"/>
<path d="M0 0 C0.66 0 1.32 0 2 0 C1.67 0.66 1.34 1.32 1 2 C0.67 1.34 0.34 0.68 0 0 Z " fill="#00D42A" transform="translate(344,211)"/>
<path d="" fill="#00D42A" transform="translate(0,0)"/>
<path d="" fill="#00BF40" transform="translate(0,0)"/>
<path d="" fill="#2AD42A" transform="translate(0,0)"/>
<path d="" fill="#00BF40" transform="translate(0,0)"/>
<path d="M0 0 C2 1 2 1 2 1 Z " fill="#00BF40" transform="translate(408,404)"/>
<path d="M0 0 C2 1 2 1 2 1 Z " fill="#00FF00" transform="translate(418,383)"/>
<path d="M0 0 C2 1 2 1 2 1 Z " fill="#008080" transform="translate(387,333)"/>
<path d="" fill="#00FF00" transform="translate(0,0)"/>
<path d="" fill="#00FF00" transform="translate(0,0)"/>
<path d="" fill="#00FF00" transform="translate(0,0)"/>
<path d="" fill="#00BF40" transform="translate(0,0)"/>
<path d="" fill="#2AD42A" transform="translate(0,0)"/>
<path d="" fill="#00FF00" transform="translate(0,0)"/>
<path d="M0 0 C2 1 2 1 2 1 Z " fill="#2A956A" transform="translate(354,213)"/>
<path d="M0 0 C2 1 2 1 2 1 Z " fill="#00FF00" transform="translate(326,203)"/>
<path d="M0 0 C2 1 2 1 2 1 Z " fill="#00BF40" transform="translate(137,172)"/>
<path d="M0 0 C2 1 2 1 2 1 Z " fill="#00BF40" transform="translate(129,172)"/>
<path d="M0 0 C2 1 2 1 2 1 Z " fill="#00FF00" transform="translate(124,172)"/>
<path d="M0 0 C2 1 2 1 2 1 Z " fill="#00BF40" transform="translate(108,172)"/>
<path d="M0 0 C2 1 2 1 2 1 Z " fill="#00FF00" transform="translate(414,141)"/>
<path d="" fill="#00FF00" transform="translate(0,0)"/>
<path d="" fill="#00FF00" transform="translate(0,0)"/>
<path d="" fill="#00FF00" transform="translate(0,0)"/>
<path d="" fill="#00FF00" transform="translate(0,0)"/>
<path d="" fill="#00FF00" transform="translate(0,0)"/>
<path d="" fill="#55AA55" transform="translate(0,0)"/>
<path d="" fill="#00FF00" transform="translate(0,0)"/>
<path d="" fill="#00FF00" transform="translate(0,0)"/>
<path d="" fill="#00FF00" transform="translate(0,0)"/>
<path d="" fill="#00FF00" transform="translate(0,0)"/>
<path d="" fill="#00FF00" transform="translate(0,0)"/>
<path d="" fill="#00FF00" transform="translate(0,0)"/>
<path d="" fill="#00FF00" transform="translate(0,0)"/>
<path d="" fill="#40BF80" transform="translate(0,0)"/>
<path d="" fill="#008080" transform="translate(0,0)"/>
<path d="" fill="#00FF00" transform="translate(0,0)"/>
<path d="" fill="#00FF00" transform="translate(0,0)"/>
<path d="" fill="#00FF00" transform="translate(0,0)"/>
<path d="" fill="#00FF00" transform="translate(0,0)"/>
<path d="" fill="#00FF00" transform="translate(0,0)"/>
<path d="" fill="#55AA55" transform="translate(0,0)"/>
<path d="" fill="#55AA55" transform="translate(0,0)"/>
<path d="" fill="#008080" transform="translate(0,0)"/>
<path d="" fill="#00FF00" transform="translate(0,0)"/>
<path d="" fill="#00FF00" transform="translate(0,0)"/>
<path d="" fill="#008080" transform="translate(0,0)"/>
<path d="" fill="#55AA55" transform="translate(0,0)"/>
<path d="" fill="#00FF00" transform="translate(0,0)"/>
<path d="" fill="#00FF00" transform="translate(0,0)"/>
<path d="" fill="#008080" transform="translate(0,0)"/>
<path d="" fill="#00FF00" transform="translate(0,0)"/>
<path d="" fill="#00FF00" transform="translate(0,0)"/>
<path d="" fill="#00FF00" transform="translate(0,0)"/>
<path d="" fill="#55AA55" transform="translate(0,0)"/>
<path d="" fill="#008080" transform="translate(0,0)"/>
<path d="" fill="#00FF00" transform="translate(0,0)"/>
<path d="" fill="#008080" transform="translate(0,0)"/>
<path d="" fill="#008080" transform="translate(0,0)"/>
<path d="" fill="#008080" transform="translate(0,0)"/>
<path d="" fill="#00FF00" transform="translate(0,0)"/>
<path d="" fill="#00FF00" transform="translate(0,0)"/>
<path d="" fill="#00FF00" transform="translate(0,0)"/>
<path d="" fill="#00FF00" transform="translate(0,0)"/>
<path d="" fill="#00FF00" transform="translate(0,0)"/>
<path d="" fill="#008080" transform="translate(0,0)"/>
<path d="" fill="#00FF00" transform="translate(0,0)"/>
<path d="" fill="#55AA55" transform="translate(0,0)"/>
<path d="" fill="#00FF00" transform="translate(0,0)"/>
<path d="" fill="#00FF00" transform="translate(0,0)"/>
<path d="" fill="#00FF00" transform="translate(0,0)"/>
<path d="" fill="#008080" transform="translate(0,0)"/>
<path d="" fill="#00FF00" transform="translate(0,0)"/>
<path d="" fill="#00FF00" transform="translate(0,0)"/>
<path d="" fill="#00FF00" transform="translate(0,0)"/>
<path d="" fill="#55AA55" transform="translate(0,0)"/>
<path d="" fill="#00FF00" transform="translate(0,0)"/>
<path d="" fill="#00FF00" transform="translate(0,0)"/>
<path d="" fill="#00FF00" transform="translate(0,0)"/>
<path d="" fill="#008080" transform="translate(0,0)"/>
<path d="" fill="#00FF00" transform="translate(0,0)"/>
<path d="" fill="#00FF00" transform="translate(0,0)"/>
<path d="" fill="#55AA55" transform="translate(0,0)"/>
<path d="" fill="#00FF00" transform="translate(0,0)"/>
<path d="" fill="#55AA55" transform="translate(0,0)"/>
<path d="" fill="#00FF00" transform="translate(0,0)"/>
<path d="" fill="#008080" transform="translate(0,0)"/>
<path d="" fill="#008080" transform="translate(0,0)"/>
<path d="" fill="#00FF00" transform="translate(0,0)"/>
<path d="" fill="#00FF00" transform="translate(0,0)"/>
<path d="" fill="#55AA55" transform="translate(0,0)"/>
<path d="" fill="#008080" transform="translate(0,0)"/>
<path d="" fill="#55AA55" transform="translate(0,0)"/>
<path d="" fill="#00FF00" transform="translate(0,0)"/>
<path d="" fill="#00FF00" transform="translate(0,0)"/>
<path d="" fill="#00FF00" transform="translate(0,0)"/>
<path d="" fill="#55AA55" transform="translate(0,0)"/>
<path d="" fill="#00FF00" transform="translate(0,0)"/>
<path d="" fill="#008080" transform="translate(0,0)"/>
<path d="" fill="#00FF00" transform="translate(0,0)"/>
<path d="" fill="#339966" transform="translate(0,0)"/>
<path d="" fill="#00FF00" transform="translate(0,0)"/>
<path d="" fill="#00FF00" transform="translate(0,0)"/>
<path d="" fill="#00FF00" transform="translate(0,0)"/>
<path d="" fill="#008080" transform="translate(0,0)"/>
<path d="" fill="#008080" transform="translate(0,0)"/>
<path d="" fill="#00FF00" transform="translate(0,0)"/>
<path d="" fill="#55AA55" transform="translate(0,0)"/>
<path d="" fill="#00FF00" transform="translate(0,0)"/>
<path d="" fill="#008080" transform="translate(0,0)"/>
<path d="" fill="#00FF00" transform="translate(0,0)"/>
<path d="" fill="#00FF00" transform="translate(0,0)"/>
<path d="" fill="#33CC66" transform="translate(0,0)"/>
<path d="" fill="#55AA55" transform="translate(0,0)"/>
<path d="" fill="#00FF00" transform="translate(0,0)"/>
<path d="" fill="#808080" transform="translate(0,0)"/>
<path d="" fill="#00FF00" transform="translate(0,0)"/>
<path d="" fill="#00FF00" transform="translate(0,0)"/>
<path d="" fill="#808080" transform="translate(0,0)"/>
<path d="" fill="#00FF00" transform="translate(0,0)"/>
<path d="" fill="#008080" transform="translate(0,0)"/>
<path d="" fill="#00FF00" transform="translate(0,0)"/>
<path d="" fill="#00FF00" transform="translate(0,0)"/>
<path d="" fill="#008080" transform="translate(0,0)"/>
<path d="" fill="#00FF00" transform="translate(0,0)"/>
<path d="" fill="#00FF00" transform="translate(0,0)"/>
<path d="" fill="#00FF00" transform="translate(0,0)"/>
<path d="" fill="#00FF00" transform="translate(0,0)"/>
<path d="" fill="#00FF00" transform="translate(0,0)"/>
<path d="" fill="#00FF00" transform="translate(0,0)"/>
<path d="" fill="#00FF00" transform="translate(0,0)"/>
<path d="" fill="#00FF00" transform="translate(0,0)"/>
<path d="" fill="#00FF00" transform="translate(0,0)"/>
<path d="" fill="#55AA55" transform="translate(0,0)"/>
<path d="" fill="#00FF00" transform="translate(0,0)"/>
<path d="" fill="#008080" transform="translate(0,0)"/>
<path d="" fill="#00FF00" transform="translate(0,0)"/>
<path d="" fill="#008080" transform="translate(0,0)"/>
<path d="" fill="#00FF00" transform="translate(0,0)"/>
<path d="" fill="#00FF00" transform="translate(0,0)"/>
<path d="" fill="#00FF00" transform="translate(0,0)"/>
<path d="" fill="#55AA55" transform="translate(0,0)"/>
<path d="" fill="#008080" transform="translate(0,0)"/>
<path d="" fill="#008080" transform="translate(0,0)"/>
<path d="" fill="#00FF00" transform="translate(0,0)"/>
<path d="" fill="#008080" transform="translate(0,0)"/>
<path d="" fill="#008080" transform="translate(0,0)"/>
<path d="" fill="#00FF00" transform="translate(0,0)"/>
<path d="" fill="#00FF00" transform="translate(0,0)"/>
<path d="" fill="#00FF00" transform="translate(0,0)"/>
<path d="" fill="#55AA55" transform="translate(0,0)"/>
<path d="" fill="#339966" transform="translate(0,0)"/>
<path d="" fill="#008080" transform="translate(0,0)"/>
<path d="" fill="#00FF00" transform="translate(0,0)"/>
<path d="" fill="#008080" transform="translate(0,0)"/>
<path d="" fill="#40BF80" transform="translate(0,0)"/>
<path d="" fill="#00FF00" transform="translate(0,0)"/>
<path d="" fill="#008080" transform="translate(0,0)"/>
<path d="" fill="#00FF00" transform="translate(0,0)"/>
<path d="" fill="#008080" transform="translate(0,0)"/>
<path d="" fill="#00FF00" transform="translate(0,0)"/>
<path d="" fill="#00FF00" transform="translate(0,0)"/>
<path d="" fill="#00FF00" transform="translate(0,0)"/>
<path d="" fill="#00FF00" transform="translate(0,0)"/>
<path d="" fill="#00FF00" transform="translate(0,0)"/>
<path d="" fill="#00FF00" transform="translate(0,0)"/>
<path d="" fill="#00FF00" transform="translate(0,0)"/>
<path d="" fill="#00FF00" transform="translate(0,0)"/>
<path d="" fill="#00FF00" transform="translate(0,0)"/>
</svg>
